<mxfile host="app.diagrams.net" modified="2022-11-09T15:19:12.893Z" agent="5.0 (Windows NT 10.0; Win64; x64) AppleWebKit/537.36 (KHTML, like Gecko) Chrome/99.0.4844.51 Safari/537.36" etag="pang0kO8QaIWrHRXT-3c" version="20.5.3" type="github">
  <diagram id="Ct5iWjqAFJ2eRKVKBsyb" name="Page-1">
    <mxGraphModel dx="1182" dy="683" grid="1" gridSize="10" guides="1" tooltips="1" connect="1" arrows="1" fold="1" page="1" pageScale="1" pageWidth="827" pageHeight="1169" math="0" shadow="0">
      <root>
        <mxCell id="0" />
        <mxCell id="1" parent="0" />
        <mxCell id="jquqhC3K-DQJOIOkYSSh-1" value="" style="rounded=1;whiteSpace=wrap;html=1;" vertex="1" parent="1">
          <mxGeometry x="280" y="20" width="170" height="60" as="geometry" />
        </mxCell>
        <mxCell id="jquqhC3K-DQJOIOkYSSh-2" value="" style="ellipse;whiteSpace=wrap;html=1;aspect=fixed;fillColor=#000000;strokeColor=#000000;" vertex="1" parent="1">
          <mxGeometry x="290" y="30" width="10" height="10" as="geometry" />
        </mxCell>
        <mxCell id="jquqhC3K-DQJOIOkYSSh-3" value="" style="ellipse;whiteSpace=wrap;html=1;aspect=fixed;fillColor=#000000;strokeColor=#000000;" vertex="1" parent="1">
          <mxGeometry x="310" y="30" width="10" height="10" as="geometry" />
        </mxCell>
        <mxCell id="jquqhC3K-DQJOIOkYSSh-4" value="" style="ellipse;whiteSpace=wrap;html=1;aspect=fixed;fillColor=#000000;strokeColor=#000000;" vertex="1" parent="1">
          <mxGeometry x="330" y="30" width="10" height="10" as="geometry" />
        </mxCell>
        <mxCell id="jquqhC3K-DQJOIOkYSSh-5" value="" style="ellipse;whiteSpace=wrap;html=1;aspect=fixed;fillColor=#000000;strokeColor=#000000;" vertex="1" parent="1">
          <mxGeometry x="350" y="30" width="10" height="10" as="geometry" />
        </mxCell>
        <mxCell id="jquqhC3K-DQJOIOkYSSh-8" value="" style="ellipse;whiteSpace=wrap;html=1;aspect=fixed;fillColor=#000000;strokeColor=#000000;" vertex="1" parent="1">
          <mxGeometry x="370" y="30" width="10" height="10" as="geometry" />
        </mxCell>
        <mxCell id="jquqhC3K-DQJOIOkYSSh-9" value="" style="ellipse;whiteSpace=wrap;html=1;aspect=fixed;fillColor=#000000;strokeColor=#000000;" vertex="1" parent="1">
          <mxGeometry x="390" y="30" width="10" height="10" as="geometry" />
        </mxCell>
        <mxCell id="jquqhC3K-DQJOIOkYSSh-10" value="" style="ellipse;whiteSpace=wrap;html=1;aspect=fixed;fillColor=#000000;strokeColor=#000000;" vertex="1" parent="1">
          <mxGeometry x="409" y="30" width="10" height="10" as="geometry" />
        </mxCell>
        <mxCell id="jquqhC3K-DQJOIOkYSSh-11" value="" style="ellipse;whiteSpace=wrap;html=1;aspect=fixed;fillColor=#000000;strokeColor=#000000;" vertex="1" parent="1">
          <mxGeometry x="430" y="30" width="10" height="10" as="geometry" />
        </mxCell>
        <mxCell id="jquqhC3K-DQJOIOkYSSh-12" value="" style="ellipse;whiteSpace=wrap;html=1;aspect=fixed;fillColor=#000000;strokeColor=#000000;" vertex="1" parent="1">
          <mxGeometry x="430" y="60" width="10" height="10" as="geometry" />
        </mxCell>
        <mxCell id="jquqhC3K-DQJOIOkYSSh-13" value="" style="ellipse;whiteSpace=wrap;html=1;aspect=fixed;fillColor=#000000;strokeColor=#000000;" vertex="1" parent="1">
          <mxGeometry x="409" y="60" width="10" height="10" as="geometry" />
        </mxCell>
        <mxCell id="jquqhC3K-DQJOIOkYSSh-14" value="" style="ellipse;whiteSpace=wrap;html=1;aspect=fixed;fillColor=#000000;strokeColor=#000000;" vertex="1" parent="1">
          <mxGeometry x="390" y="60" width="10" height="10" as="geometry" />
        </mxCell>
        <mxCell id="jquqhC3K-DQJOIOkYSSh-15" value="" style="ellipse;whiteSpace=wrap;html=1;aspect=fixed;fillColor=#000000;strokeColor=#000000;" vertex="1" parent="1">
          <mxGeometry x="370" y="60" width="10" height="10" as="geometry" />
        </mxCell>
        <mxCell id="jquqhC3K-DQJOIOkYSSh-16" value="" style="ellipse;whiteSpace=wrap;html=1;aspect=fixed;fillColor=#000000;strokeColor=#000000;" vertex="1" parent="1">
          <mxGeometry x="350" y="60" width="10" height="10" as="geometry" />
        </mxCell>
        <mxCell id="jquqhC3K-DQJOIOkYSSh-17" value="" style="ellipse;whiteSpace=wrap;html=1;aspect=fixed;fillColor=#000000;strokeColor=#000000;" vertex="1" parent="1">
          <mxGeometry x="330" y="60" width="10" height="10" as="geometry" />
        </mxCell>
        <mxCell id="jquqhC3K-DQJOIOkYSSh-18" value="" style="ellipse;whiteSpace=wrap;html=1;aspect=fixed;fillColor=#000000;strokeColor=#000000;" vertex="1" parent="1">
          <mxGeometry x="310" y="60" width="10" height="10" as="geometry" />
        </mxCell>
        <mxCell id="jquqhC3K-DQJOIOkYSSh-19" value="" style="endArrow=none;html=1;rounded=0;startArrow=classic;startFill=1;exitX=1;exitY=0.5;exitDx=0;exitDy=0;" edge="1" parent="1" source="jquqhC3K-DQJOIOkYSSh-11">
          <mxGeometry width="50" height="50" relative="1" as="geometry">
            <mxPoint x="440" y="40" as="sourcePoint" />
            <mxPoint x="560" y="255" as="targetPoint" />
            <Array as="points">
              <mxPoint x="560" y="40" />
            </Array>
          </mxGeometry>
        </mxCell>
        <mxCell id="jquqhC3K-DQJOIOkYSSh-40" value="10mA" style="edgeLabel;html=1;align=center;verticalAlign=middle;resizable=0;points=[];fontColor=#000000;" vertex="1" connectable="0" parent="jquqhC3K-DQJOIOkYSSh-19">
          <mxGeometry x="0.6061" y="-2" relative="1" as="geometry">
            <mxPoint as="offset" />
          </mxGeometry>
        </mxCell>
        <mxCell id="jquqhC3K-DQJOIOkYSSh-42" value="5V" style="edgeLabel;html=1;align=center;verticalAlign=middle;resizable=0;points=[];fontColor=#000000;" vertex="1" connectable="0" parent="jquqhC3K-DQJOIOkYSSh-19">
          <mxGeometry x="-0.7431" relative="1" as="geometry">
            <mxPoint as="offset" />
          </mxGeometry>
        </mxCell>
        <mxCell id="jquqhC3K-DQJOIOkYSSh-22" style="edgeStyle=orthogonalEdgeStyle;rounded=0;orthogonalLoop=1;jettySize=auto;html=1;fontColor=#000000;" edge="1" parent="1" source="jquqhC3K-DQJOIOkYSSh-20" target="jquqhC3K-DQJOIOkYSSh-21">
          <mxGeometry relative="1" as="geometry" />
        </mxCell>
        <mxCell id="jquqhC3K-DQJOIOkYSSh-20" value="&lt;span style=&quot;background-color: rgb(255, 255, 255);&quot;&gt;330Ohm&lt;/span&gt;" style="rounded=0;whiteSpace=wrap;html=1;labelBackgroundColor=#000000;rotation=90;" vertex="1" parent="1">
          <mxGeometry x="535" y="255" width="70" height="50" as="geometry" />
        </mxCell>
        <mxCell id="jquqhC3K-DQJOIOkYSSh-21" value="" style="triangle;whiteSpace=wrap;html=1;labelBackgroundColor=#FFFFFF;rotation=90;" vertex="1" parent="1">
          <mxGeometry x="550" y="340" width="40" height="60" as="geometry" />
        </mxCell>
        <mxCell id="jquqhC3K-DQJOIOkYSSh-23" value="" style="rounded=0;whiteSpace=wrap;html=1;labelBackgroundColor=#FFFFFF;" vertex="1" parent="1">
          <mxGeometry x="530" y="390" width="80" height="10" as="geometry" />
        </mxCell>
        <mxCell id="jquqhC3K-DQJOIOkYSSh-25" style="edgeStyle=orthogonalEdgeStyle;rounded=0;orthogonalLoop=1;jettySize=auto;html=1;fontColor=#000000;" edge="1" parent="1" source="jquqhC3K-DQJOIOkYSSh-26" target="jquqhC3K-DQJOIOkYSSh-27">
          <mxGeometry relative="1" as="geometry" />
        </mxCell>
        <mxCell id="jquqhC3K-DQJOIOkYSSh-29" style="edgeStyle=orthogonalEdgeStyle;rounded=0;orthogonalLoop=1;jettySize=auto;html=1;entryX=0.5;entryY=1;entryDx=0;entryDy=0;fontColor=#000000;exitX=0;exitY=0.5;exitDx=0;exitDy=0;" edge="1" parent="1" source="jquqhC3K-DQJOIOkYSSh-26" target="jquqhC3K-DQJOIOkYSSh-12">
          <mxGeometry relative="1" as="geometry" />
        </mxCell>
        <mxCell id="jquqhC3K-DQJOIOkYSSh-39" value="10mA" style="edgeLabel;html=1;align=center;verticalAlign=middle;resizable=0;points=[];fontColor=#000000;" vertex="1" connectable="0" parent="jquqhC3K-DQJOIOkYSSh-29">
          <mxGeometry x="-0.7524" y="1" relative="1" as="geometry">
            <mxPoint as="offset" />
          </mxGeometry>
        </mxCell>
        <mxCell id="jquqhC3K-DQJOIOkYSSh-43" value="5V" style="edgeLabel;html=1;align=center;verticalAlign=middle;resizable=0;points=[];fontColor=#000000;" vertex="1" connectable="0" parent="jquqhC3K-DQJOIOkYSSh-29">
          <mxGeometry x="0.3619" y="-2" relative="1" as="geometry">
            <mxPoint as="offset" />
          </mxGeometry>
        </mxCell>
        <mxCell id="jquqhC3K-DQJOIOkYSSh-26" value="&lt;span style=&quot;background-color: rgb(255, 255, 255);&quot;&gt;330Ohm&lt;/span&gt;" style="rounded=0;whiteSpace=wrap;html=1;labelBackgroundColor=#000000;rotation=90;" vertex="1" parent="1">
          <mxGeometry x="435" y="255" width="70" height="50" as="geometry" />
        </mxCell>
        <mxCell id="jquqhC3K-DQJOIOkYSSh-27" value="" style="triangle;whiteSpace=wrap;html=1;labelBackgroundColor=#FFFFFF;rotation=90;" vertex="1" parent="1">
          <mxGeometry x="450" y="340" width="40" height="60" as="geometry" />
        </mxCell>
        <mxCell id="jquqhC3K-DQJOIOkYSSh-28" value="" style="rounded=0;whiteSpace=wrap;html=1;labelBackgroundColor=#FFFFFF;" vertex="1" parent="1">
          <mxGeometry x="430" y="390" width="80" height="10" as="geometry" />
        </mxCell>
        <mxCell id="jquqhC3K-DQJOIOkYSSh-30" value="" style="shape=flexArrow;endArrow=classic;html=1;rounded=0;fontColor=#000000;" edge="1" parent="1">
          <mxGeometry width="50" height="50" relative="1" as="geometry">
            <mxPoint x="610" y="370" as="sourcePoint" />
            <mxPoint x="640" y="400" as="targetPoint" />
          </mxGeometry>
        </mxCell>
        <mxCell id="jquqhC3K-DQJOIOkYSSh-31" value="" style="shape=flexArrow;endArrow=classic;html=1;rounded=0;fontColor=#000000;" edge="1" parent="1">
          <mxGeometry width="50" height="50" relative="1" as="geometry">
            <mxPoint x="630" y="350" as="sourcePoint" />
            <mxPoint x="660" y="380" as="targetPoint" />
          </mxGeometry>
        </mxCell>
        <mxCell id="jquqhC3K-DQJOIOkYSSh-32" value="" style="shape=flexArrow;endArrow=classic;html=1;rounded=0;fontColor=#000000;" edge="1" parent="1">
          <mxGeometry width="50" height="50" relative="1" as="geometry">
            <mxPoint x="430" y="380" as="sourcePoint" />
            <mxPoint x="405" y="400" as="targetPoint" />
          </mxGeometry>
        </mxCell>
        <mxCell id="jquqhC3K-DQJOIOkYSSh-33" value="" style="shape=flexArrow;endArrow=classic;html=1;rounded=0;fontColor=#000000;" edge="1" parent="1">
          <mxGeometry width="50" height="50" relative="1" as="geometry">
            <mxPoint x="410" y="360" as="sourcePoint" />
            <mxPoint x="380" y="385" as="targetPoint" />
          </mxGeometry>
        </mxCell>
        <mxCell id="jquqhC3K-DQJOIOkYSSh-36" value="" style="shape=mxgraph.arrows2.wedgeArrowDashed2;html=1;bendable=0;startWidth=50;stepSize=15;rounded=0;fontColor=#000000;startArrow=classic;startFill=1;" edge="1" parent="1">
          <mxGeometry width="100" height="100" relative="1" as="geometry">
            <mxPoint x="520" y="470" as="sourcePoint" />
            <mxPoint x="520" y="500" as="targetPoint" />
          </mxGeometry>
        </mxCell>
        <mxCell id="jquqhC3K-DQJOIOkYSSh-37" value="" style="endArrow=none;html=1;rounded=0;fontColor=#000000;exitX=0.5;exitY=1;exitDx=0;exitDy=0;" edge="1" parent="1" source="jquqhC3K-DQJOIOkYSSh-23">
          <mxGeometry width="50" height="50" relative="1" as="geometry">
            <mxPoint x="600" y="440" as="sourcePoint" />
            <mxPoint x="469" y="400" as="targetPoint" />
            <Array as="points">
              <mxPoint x="570" y="440" />
              <mxPoint x="470" y="440" />
            </Array>
          </mxGeometry>
        </mxCell>
        <mxCell id="jquqhC3K-DQJOIOkYSSh-41" value="GND" style="edgeLabel;html=1;align=center;verticalAlign=middle;resizable=0;points=[];fontColor=#000000;" vertex="1" connectable="0" parent="jquqhC3K-DQJOIOkYSSh-37">
          <mxGeometry x="-0.2445" y="1" relative="1" as="geometry">
            <mxPoint as="offset" />
          </mxGeometry>
        </mxCell>
        <mxCell id="jquqhC3K-DQJOIOkYSSh-38" value="" style="endArrow=none;html=1;rounded=0;fontColor=#000000;" edge="1" parent="1">
          <mxGeometry width="50" height="50" relative="1" as="geometry">
            <mxPoint x="520" y="470" as="sourcePoint" />
            <mxPoint x="520" y="440" as="targetPoint" />
          </mxGeometry>
        </mxCell>
        <mxCell id="jquqhC3K-DQJOIOkYSSh-45" value="Micro" style="rounded=0;whiteSpace=wrap;html=1;labelBackgroundColor=#FFFFFF;" vertex="1" parent="1">
          <mxGeometry x="160" y="370" width="120" height="60" as="geometry" />
        </mxCell>
        <mxCell id="jquqhC3K-DQJOIOkYSSh-46" value="" style="endArrow=none;html=1;rounded=0;fontColor=#000000;" edge="1" parent="1">
          <mxGeometry width="50" height="50" relative="1" as="geometry">
            <mxPoint x="240" y="370" as="sourcePoint" />
            <mxPoint x="470" y="420" as="targetPoint" />
            <Array as="points">
              <mxPoint x="240" y="320" />
              <mxPoint x="360" y="320" />
              <mxPoint x="360" y="420" />
            </Array>
          </mxGeometry>
        </mxCell>
        <mxCell id="jquqhC3K-DQJOIOkYSSh-47" value="Term2" style="edgeLabel;html=1;align=center;verticalAlign=middle;resizable=0;points=[];fontColor=#000000;" vertex="1" connectable="0" parent="jquqhC3K-DQJOIOkYSSh-46">
          <mxGeometry x="-0.9211" y="-1" relative="1" as="geometry">
            <mxPoint as="offset" />
          </mxGeometry>
        </mxCell>
        <mxCell id="jquqhC3K-DQJOIOkYSSh-48" value="" style="endArrow=none;html=1;rounded=0;fontColor=#000000;" edge="1" parent="1">
          <mxGeometry width="50" height="50" relative="1" as="geometry">
            <mxPoint x="185" y="370" as="sourcePoint" />
            <mxPoint x="185" y="240" as="targetPoint" />
            <Array as="points">
              <mxPoint x="185" y="240" />
              <mxPoint x="185" y="210" />
            </Array>
          </mxGeometry>
        </mxCell>
        <mxCell id="jquqhC3K-DQJOIOkYSSh-52" value="Term1" style="edgeLabel;html=1;align=center;verticalAlign=middle;resizable=0;points=[];fontColor=#000000;" vertex="1" connectable="0" parent="jquqhC3K-DQJOIOkYSSh-48">
          <mxGeometry x="-0.8479" relative="1" as="geometry">
            <mxPoint as="offset" />
          </mxGeometry>
        </mxCell>
        <mxCell id="jquqhC3K-DQJOIOkYSSh-49" value="&lt;span style=&quot;background-color: rgb(255, 255, 255);&quot;&gt;2.2kOhm&lt;/span&gt;" style="rounded=0;whiteSpace=wrap;html=1;labelBackgroundColor=#000000;rotation=90;" vertex="1" parent="1">
          <mxGeometry x="150" y="150" width="70" height="50" as="geometry" />
        </mxCell>
        <mxCell id="jquqhC3K-DQJOIOkYSSh-53" value="" style="endArrow=none;html=1;rounded=0;fontColor=#000000;" edge="1" parent="1">
          <mxGeometry width="50" height="50" relative="1" as="geometry">
            <mxPoint x="74" y="240" as="sourcePoint" />
            <mxPoint x="74" y="180" as="targetPoint" />
          </mxGeometry>
        </mxCell>
        <mxCell id="jquqhC3K-DQJOIOkYSSh-54" value="" style="endArrow=none;html=1;rounded=0;fontColor=#000000;" edge="1" parent="1">
          <mxGeometry width="50" height="50" relative="1" as="geometry">
            <mxPoint x="56" y="180" as="sourcePoint" />
            <mxPoint x="96" y="180" as="targetPoint" />
          </mxGeometry>
        </mxCell>
        <mxCell id="jquqhC3K-DQJOIOkYSSh-55" value="" style="endArrow=none;html=1;rounded=0;fontColor=#000000;" edge="1" parent="1">
          <mxGeometry width="50" height="50" relative="1" as="geometry">
            <mxPoint x="56" y="167" as="sourcePoint" />
            <mxPoint x="96" y="167" as="targetPoint" />
          </mxGeometry>
        </mxCell>
        <mxCell id="jquqhC3K-DQJOIOkYSSh-56" value="" style="endArrow=none;html=1;rounded=0;fontColor=#000000;entryX=0.5;entryY=1;entryDx=0;entryDy=0;" edge="1" parent="1">
          <mxGeometry width="50" height="50" relative="1" as="geometry">
            <mxPoint x="75" y="166" as="sourcePoint" />
            <mxPoint x="315" y="66" as="targetPoint" />
            <Array as="points">
              <mxPoint x="75" y="66" />
            </Array>
          </mxGeometry>
        </mxCell>
        <mxCell id="jquqhC3K-DQJOIOkYSSh-58" value="" style="endArrow=none;html=1;rounded=0;fontColor=#000000;" edge="1" parent="1">
          <mxGeometry width="50" height="50" relative="1" as="geometry">
            <mxPoint x="74" y="240" as="sourcePoint" />
            <mxPoint x="184" y="240" as="targetPoint" />
          </mxGeometry>
        </mxCell>
        <mxCell id="jquqhC3K-DQJOIOkYSSh-61" value="" style="endArrow=none;html=1;rounded=0;fontColor=#000000;fillColor=#f8cecc;strokeColor=#b85450;" edge="1" parent="1" source="jquqhC3K-DQJOIOkYSSh-49">
          <mxGeometry width="50" height="50" relative="1" as="geometry">
            <mxPoint x="180" y="130" as="sourcePoint" />
            <mxPoint x="290" y="34" as="targetPoint" />
            <Array as="points">
              <mxPoint x="185" y="34" />
            </Array>
          </mxGeometry>
        </mxCell>
        <mxCell id="jquqhC3K-DQJOIOkYSSh-62" value="5V" style="edgeLabel;html=1;align=center;verticalAlign=middle;resizable=0;points=[];fontColor=#000000;" vertex="1" connectable="0" parent="jquqhC3K-DQJOIOkYSSh-61">
          <mxGeometry x="0.3724" y="3" relative="1" as="geometry">
            <mxPoint as="offset" />
          </mxGeometry>
        </mxCell>
      </root>
    </mxGraphModel>
  </diagram>
</mxfile>
